<?xml version="1.0" encoding="utf-8"?>
<!-- Generator: Adobe Illustrator 26.3.1, SVG Export Plug-In . SVG Version: 6.00 Build 0)  -->
<svg version="1.1" id="katman_1" xmlns="http://www.w3.org/2000/svg" xmlns:xlink="http://www.w3.org/1999/xlink" x="0px" y="0px"
	 viewBox="0 0 20 21" style="enable-background:new 0 0 20 21;" xml:space="preserve">
<style type="text/css">
	.st0{fill:none;stroke:green;stroke-width:1.5;stroke-linecap:round;stroke-linejoin:round;}
</style>
<path class="st0" d="M18,9.2l-0.8,3.5c-0.7,3-2.1,4.2-4.7,4c-0.4,0-0.9-0.1-1.4-0.2l-1.4-0.3c-3.5-0.8-4.5-2.5-3.7-6l0.8-3.5
	C7,5.9,7.2,5.3,7.5,4.7c1-2,2.6-2.6,5.4-1.9l1.4,0.3C17.8,4,18.9,5.7,18,9.2z"/>
<path class="st0" d="M12.5,16.7c-0.5,0.4-1.2,0.6-2,0.9L9.3,18c-3.3,1.1-5.1,0.2-6.1-3.1l-1.1-3.3C1,8.3,1.9,6.5,5.2,5.4L6.5,5
	c0.3-0.1,0.7-0.2,1-0.3C7.2,5.3,7,5.9,6.9,6.6l-0.8,3.5c-0.8,3.5,0.3,5.2,3.7,6l1.4,0.3C11.7,16.5,12.1,16.6,12.5,16.7z"/>
</svg>
