<?xml version="1.0" encoding="utf-8"?>
<!-- Generator: Adobe Illustrator 26.3.1, SVG Export Plug-In . SVG Version: 6.00 Build 0)  -->
<svg version="1.1" id="Layer_1" xmlns="http://www.w3.org/2000/svg" xmlns:xlink="http://www.w3.org/1999/xlink" x="0px" y="0px"
	 viewBox="0 0 65 65" style="enable-background:new 0 0 65 65;" xml:space="preserve">
<style type="text/css">
	.st0{fill:none;stroke:#fff;stroke-width:3.5;stroke-linecap:round;stroke-linejoin:round;}
</style>
<g>
	<path class="st0" d="M24.2,60h16.5C54.5,60,60,54.5,60,40.8V24.2C60,10.5,54.5,5,40.8,5H24.2C10.5,5,5,10.5,5,24.2v16.5
		C5,54.5,10.5,60,24.2,60z"/>
	<path class="st0" d="M24.2,27c3,0,5.5-2.5,5.5-5.5S27.3,16,24.2,16c-3,0-5.5,2.5-5.5,5.5S21.2,27,24.2,27z"/>
	<path class="st0" d="M6.8,51.6l13.6-9.1c2.2-1.5,5.3-1.3,7.3,0.4l0.9,0.8c2.1,1.8,5.6,1.8,7.8,0l11.4-9.8c2.1-1.8,5.6-1.8,7.8,0
		l4.5,3.8"/>
</g>
</svg>
